<svg xmlns="http://www.w3.org/2000/svg" version="1.1" xmlns:xlink="http://www.w3.org/1999/xlink" xmlns:svgjs="http://svgjs.dev/svgjs" width="1500" height="939" viewBox="0 0 1500 939"><g transform="matrix(1,0,0,1,-0.9090909090909918,-1.5145161290320175)"><svg viewBox="0 0 396 248" data-background-color="#ffffff" preserveAspectRatio="xMidYMid meet" height="939" width="1500" xmlns="http://www.w3.org/2000/svg" xmlns:xlink="http://www.w3.org/1999/xlink"><g id="tight-bounds" transform="matrix(1,0,0,1,0.2400000000000091,0.4000000000000057)"><svg viewBox="0 0 395.52 247.2" height="247.2" width="395.52"><g><svg></svg></g><g><svg viewBox="0 0 395.52 247.2" height="247.2" width="395.52"><mask id="358dba6c-20f5-46c1-8fc5-137004137ba8"><rect width="395.52" height="247.2" fill="white"></rect><g transform="matrix(1,0,0,1,45.46045454545455,37.08)" id="clone"><svg viewBox="0 0 304.5990909090909 173.04" height="173.04" width="304.5990909090909"><g><svg viewBox="0 0 304.5990909090909 173.04" height="173.04" width="304.5990909090909"><g><svg viewBox="0 0 304.5990909090909 173.04" height="173.04" width="304.5990909090909"><g><svg viewBox="0 0 304.5990909090909 173.04" height="173.04" width="304.5990909090909"><g id="SvgjsG8872"><svg viewBox="0 0 304.5990909090909 173.04" height="173.04" width="304.5990909090909" id="SvgjsSvg8871"><g><svg viewBox="0 0 304.5990909090909 173.04" height="173.04" width="304.5990909090909"><g transform="matrix(1,0,0,1,0,0)"><svg width="304.5990909090909" viewBox="-6.65 -33.25 74.93035705683201 43" height="173.04" data-palette-color="#c53683"><path d="M-2.3 6.75L-2.3 6.75Q-2.65 6.75-2.95 6.6L-2.95 6.6Q-3.65 6.15-3.65 5.35L-3.65 5.35Q-3.65 5-3.5 4.7L-3.5 4.7Q-3.2 4.1-2.15 3.2-1.1 2.3 0.1 1.6L0.1 1.6Q0.6 0.95 0.9 0.4 1.2-0.15 1.35-0.55L1.35-0.55Q2.5-2.65 3.7-4.45 4.9-6.25 6.1-7.8L6.1-7.8Q4.9-8.65 4.9-10.2L4.9-10.2Q4.9-11.5 5.55-12.85L5.55-12.85Q5.95-13.7 6.25-13.9L6.25-13.9Q6.6-14.1 6.7-14L6.7-14Q6.8-14 6.8-13.6L6.8-13.6Q6.8-13.25 6.55-12.65L6.55-12.65Q6.35-12.3 6.35-11.7L6.35-11.7Q6.35-10.45 7.5-9.6L7.5-9.6Q8.3-10.55 8.95-11.5L8.95-11.5Q10.95-14.1 12.75-16.32 14.55-18.55 16.25-20.45L16.25-20.45Q18.45-22.95 21.05-25.2 23.65-27.45 26.35-28.85 29.05-30.25 31.55-30.25L31.55-30.25Q33.35-30.25 34.43-29.55 35.5-28.85 35.5-27.5L35.5-27.5Q35.5-26.4 34.65-24.85L34.65-24.85Q33.75-23.3 32.23-21.45 30.7-19.6 28.5-17.45L28.5-17.45Q25.6-14.55 22.33-12.13 19.05-9.7 15.88-8.22 12.7-6.75 10.05-6.75L10.05-6.75Q8.45-6.75 7.4-7.25L7.4-7.25Q6.15-5.65 5.05-4.03 3.95-2.4 3-0.8L3-0.8Q2.95-0.45 2.3 0.6L2.3 0.6Q4.7-0.7 8.1-1.55 11.5-2.4 15.23-2.85 18.95-3.3 22.2-3.25L22.2-3.25Q24.25-3.25 25.33-2.27 26.4-1.3 26.4 0L26.4 0Q26.4 0.15 26.38 0.35 26.35 0.55 26.3 0.8L26.3 0.8Q26.25 1.6 25.93 2.23 25.6 2.85 25.2 2.85L25.2 2.85Q24.65 2.85 24.5 1.35L24.5 1.35Q24.15 0.05 23.55-0.6 22.95-1.25 21.25-1.25L21.25-1.25Q9.35-1.15 1.2 3.25L1.2 3.25Q0.8 4.05 0.4 4.65 0 5.25-0.35 5.65L-0.35 5.65Q-1.3 6.75-2.3 6.75ZM10.95-8.7L10.95-8.7Q14.75-8.7 19.25-11.4L19.25-11.4Q22.25-13.2 24.98-15.58 27.7-17.95 29.88-20.5 32.05-23.05 33.3-25.25L33.3-25.25Q34.1-26.65 34.1-27.5L34.1-27.5Q34.1-28.6 32.65-28.6L32.65-28.6Q32.15-28.6 31.45-28.45L31.45-28.45Q28.25-27.8 23.85-24.3L23.85-24.3Q20.95-22 18.18-19.33 15.4-16.65 12.98-13.98 10.55-11.3 8.7-9L8.7-9Q9.85-8.7 10.95-8.7ZM56.1 6.2L56.1 6.2Q52.15 6.2 49.2 3.85L49.2 3.85Q47.8 2.7 46.15 0.83 44.5-1.05 42.95-3.23 41.4-5.4 40.2-7.3L40.2-7.3Q38.1-6.95 36.3-6.85L36.3-6.85Q35.3-4.95 34.6-3.2 33.9-1.45 33.55 0.15L33.55 0.15Q33.5 0.45 33.47 0.65 33.45 0.85 33.45 0.95L33.45 0.95Q33.45 1.85 33.8 2.53 34.15 3.2 34.6 3.25L34.6 3.25Q35 3.3 35.25 3.45 35.5 3.6 35.6 3.8L35.6 3.8 35.6 3.9Q35.6 4.25 34.75 4.25L34.75 4.25Q31.9 4.25 31.9 1.65L31.9 1.65Q31.9 1.45 31.95 1.07 32 0.7 32.1 0.15L32.1 0.15Q32.75-3.05 34.6-6.9L34.6-6.9Q33.75-7.15 32.77-7.65 31.8-8.15 31.15-9.13 30.5-10.1 30.5-11.75L30.5-11.75Q30.5-13.5 31.35-14.68 32.2-15.85 33.65-15.85L33.65-15.85Q34.8-15.85 36.2-15L36.2-15Q36.3-14.95 36.47-14.8 36.65-14.65 37-14.45L37-14.45Q37.55-14.1 38.2-13.3L38.2-13.3Q39.45-15.15 40.77-16.82 42.1-18.5 43.5-20.05L43.5-20.05Q43.7-20.25 43.7-20.6L43.7-20.6 43.7-20.8Q43.7-21.15 43.85-21.3L43.85-21.3Q44.25-21.7 45.5-22.2L45.5-22.2Q45.75-22.35 45.8-22.5L45.8-22.5Q46.05-22.8 46.5-22.8L46.5-22.8Q47.2-22.8 47.8-22.33 48.4-21.85 48-21.45L48-21.45 47.1-20.5Q45.95-19.35 44.45-17.7L44.45-17.7Q43.15-16.3 41.9-14.83 40.65-13.35 39.5-11.75L39.5-11.75Q39.9-11.15 40.4-10.4 40.9-9.65 41.4-8.8L41.4-8.8Q44.45-9.35 47.07-10.23 49.7-11.1 52.3-12.55L52.3-12.55Q55.55-14.35 57.25-16.45 58.95-18.55 58.95-20.5L58.95-20.5Q58.95-22.85 56.52-24.38 54.1-25.9 49.7-25.9L49.7-25.9Q48.3-25.9 46.7-25.7 45.1-25.5 43.25-25.1L43.25-25.1Q39.6-24.3 35.95-22.4 32.3-20.5 29.9-17.6L29.9-17.6Q29.35-16.95 28.95-17.35L28.95-17.35Q28.8-17.55 28.9-18L28.9-18Q28.95-18.35 29.45-19.1L29.45-19.1Q31.1-21.45 34.85-23.3L34.85-23.3Q37.35-24.6 40.1-25.5 42.85-26.4 45.4-26.9 47.95-27.4 49.8-27.4L49.8-27.4Q53.4-27.4 56.2-26.55L56.2-26.55Q61.65-24.8 61.65-20.95L61.65-20.95Q61.65-18.85 59.8-16.63 57.95-14.4 54.3-12.35L54.3-12.35Q52.05-11.1 48.75-9.83 45.45-8.55 42.1-7.7L42.1-7.7Q42.55-6.9 43.45-5.7 44.35-4.5 45.42-3.23 46.5-1.95 47.55-0.83 48.6 0.3 49.35 1L49.35 1Q53.45 4.8 57.75 4.8L57.75 4.8Q61.8 4.8 64.65 1.35L64.65 1.35Q64.75 1.25 64.9 1.25L64.9 1.25Q65.1 1.25 65.22 1.45 65.35 1.65 65.2 1.9L65.2 1.9Q63.4 4.05 61.02 5.13 58.65 6.2 56.1 6.2ZM35.4-8.55L35.4-8.55Q35.65-9.05 36.12-9.88 36.6-10.7 37.25-11.8L37.25-11.8Q36.25-13.1 35.07-13.73 33.9-14.35 32.75-14.35L32.75-14.35Q31.75-14.35 31.75-13.2L31.75-13.2Q31.75-11.4 32.65-10.18 33.55-8.95 35.4-8.55ZM37.25-8.4L37.25-8.4Q37.6-8.4 38.15-8.43 38.7-8.45 39.5-8.5L39.5-8.5 38.4-10.2Q38.05-9.7 37.77-9.25 37.5-8.8 37.25-8.4Z" opacity="1" transform="matrix(1,0,0,1,0,0)" fill="black" class="wordmark-text-0" id="SvgjsPath8870" stroke-width="5" stroke="black" stroke-linejoin="round"></path></svg></g></svg></g></svg></g></svg></g></svg></g></svg></g></svg></g></mask><g mask="url(#358dba6c-20f5-46c1-8fc5-137004137ba8)"><g><path d="M75.997 247.2v0c-1.559 0-3.006-0.334-4.342-1.002v0c-3.118-2.004-4.677-4.788-4.677-8.352v0c0-1.559 0.334-3.006 1.002-4.342v0c1.336-2.672 4.343-6.013 9.019-10.022 4.677-4.009 9.688-7.572 15.033-10.69v0c2.227-2.895 4.009-5.568 5.345-8.017 1.336-2.45 2.338-4.565 3.006-6.347v0c5.122-9.354 10.356-18.039 15.701-26.056 5.345-8.017 10.69-15.478 16.034-22.382v0c-5.345-3.786-8.017-9.131-8.017-16.034v0c0-5.79 1.448-11.692 4.343-17.705v0c1.782-3.786 3.341-6.124 4.677-7.015v0c1.559-0.891 2.561-1.114 3.006-0.668v0c0.445 0 0.668 0.891 0.668 2.672v0c0 1.559-0.557 3.675-1.67 6.347v0c-0.891 1.559-1.336 3.675-1.336 6.347v0c0 5.568 2.561 10.244 7.683 14.03v0c3.563-4.231 6.792-8.463 9.687-12.694v0c8.908-11.581 17.371-22.315 25.389-32.203 8.017-9.933 15.812-19.13 23.383-27.592v0c9.799-11.135 20.489-21.714 32.07-31.736 11.581-10.022 23.384-18.15 35.409-24.385 12.026-6.236 23.606-9.354 34.742-9.354v0c8.017 0 14.431 1.559 19.241 4.677 4.766 3.118 7.149 7.683 7.149 13.696v0c0 4.899-1.893 10.801-5.679 17.705v0c-4.009 6.904-9.398 14.476-16.168 22.716-6.815 8.24-15.122 17.148-24.92 26.724v0c-12.917 12.917-26.658 24.765-41.223 35.543-14.609 10.823-28.974 19.531-43.093 26.123-14.164 6.547-27.147 9.821-38.95 9.821v0c-7.126 0-13.028-1.114-17.705-3.34v0c-5.568 7.126-10.801 14.298-15.701 21.513-4.899 7.26-9.465 14.453-13.696 21.58v0c-0.223 1.559-1.782 4.677-4.677 9.353v0c10.69-5.79 23.606-10.578 38.751-14.364 15.144-3.786 31.022-6.681 47.636-8.685 16.569-2.004 32.091-2.895 46.567-2.673v0c9.131 0 16.101 2.182 20.912 6.548 4.766 4.32 7.149 9.376 7.148 15.166v0c0 0.668-0.045 1.448-0.133 2.338-0.134 0.891-0.312 1.893-0.535 3.007v0c-0.223 3.563-1.047 6.748-2.472 9.554-1.47 2.762-3.096 4.142-4.877 4.142v0c-2.45 0-4.009-3.341-4.677-10.022v0c-1.559-5.79-3.675-10.133-6.347-13.028-2.672-2.895-7.795-4.343-15.366-4.343v0c-53.003 0.445-97.655 10.467-133.956 30.065v0c-1.782 3.563-3.563 6.681-5.345 9.354-1.782 2.672-3.452 4.899-5.011 6.681v0c-4.231 4.899-8.574 7.349-13.028 7.349zM164.522 143.977v0c16.925 0 35.41-6.013 55.453-18.039v0c13.362-8.017 26.123-17.326 38.282-27.927 12.115-10.556 23.027-21.513 32.737-32.87 9.665-11.358 17.282-21.936 22.85-31.736v0c3.563-6.236 5.345-11.246 5.345-15.032v0c0-4.899-3.229-7.349-9.688-7.349v0c-2.227 0-4.899 0.334-8.017 1.002v0c-14.253 2.895-31.178 12.137-50.776 27.726v0c-12.917 10.244-25.544 21.313-37.882 33.205-12.382 11.937-23.963 23.851-34.742 35.744-10.823 11.937-20.355 23.027-28.595 33.272v0c5.122 1.336 10.133 2.004 15.033 2.004z" fill="#c53683" fill-rule="nonzero" stroke="none" stroke-width="1" stroke-linecap="butt" stroke-linejoin="miter" stroke-miterlimit="10" stroke-dasharray="" stroke-dashoffset="0" font-family="none" font-weight="none" font-size="none" text-anchor="none" style="mix-blend-mode: normal" data-fill-palette-color="tertiary"></path></g></g><g transform="matrix(1,0,0,1,45.46045454545455,37.08)"><svg viewBox="0 0 304.5990909090909 173.04" height="173.04" width="304.5990909090909"><g><svg viewBox="0 0 304.5990909090909 173.04" height="173.04" width="304.5990909090909"><g><svg viewBox="0 0 304.5990909090909 173.04" height="173.04" width="304.5990909090909"><g><svg viewBox="0 0 304.5990909090909 173.04" height="173.04" width="304.5990909090909"><g id="textblocktransform"><svg viewBox="0 0 304.5990909090909 173.04" height="173.04" width="304.5990909090909" id="textblock"><g><svg viewBox="0 0 304.5990909090909 173.04" height="173.04" width="304.5990909090909"><g transform="matrix(1,0,0,1,0,0)"><svg width="304.5990909090909" viewBox="-6.65 -33.25 74.93035705683201 43" height="173.04" data-palette-color="#c53683"><path d="M-2.3 6.75L-2.3 6.75Q-2.65 6.75-2.95 6.6L-2.95 6.6Q-3.65 6.15-3.65 5.35L-3.65 5.35Q-3.65 5-3.5 4.7L-3.5 4.7Q-3.2 4.1-2.15 3.2-1.1 2.3 0.1 1.6L0.1 1.6Q0.6 0.95 0.9 0.4 1.2-0.15 1.35-0.55L1.35-0.55Q2.5-2.65 3.7-4.45 4.9-6.25 6.1-7.8L6.1-7.8Q4.9-8.65 4.9-10.2L4.9-10.2Q4.9-11.5 5.55-12.85L5.55-12.85Q5.95-13.7 6.25-13.9L6.25-13.9Q6.6-14.1 6.7-14L6.7-14Q6.8-14 6.8-13.6L6.8-13.6Q6.8-13.25 6.55-12.65L6.55-12.65Q6.35-12.3 6.35-11.7L6.35-11.7Q6.35-10.45 7.5-9.6L7.5-9.6Q8.3-10.55 8.95-11.5L8.95-11.5Q10.95-14.1 12.75-16.32 14.55-18.55 16.25-20.45L16.25-20.45Q18.45-22.95 21.05-25.2 23.65-27.45 26.35-28.85 29.05-30.25 31.55-30.25L31.55-30.25Q33.35-30.25 34.43-29.55 35.5-28.85 35.5-27.5L35.5-27.5Q35.5-26.4 34.65-24.85L34.65-24.85Q33.75-23.3 32.23-21.45 30.7-19.6 28.5-17.45L28.5-17.45Q25.6-14.55 22.33-12.13 19.05-9.7 15.88-8.22 12.7-6.75 10.05-6.75L10.05-6.75Q8.45-6.75 7.4-7.25L7.4-7.25Q6.15-5.65 5.05-4.03 3.95-2.4 3-0.8L3-0.8Q2.95-0.45 2.3 0.6L2.3 0.6Q4.7-0.7 8.1-1.55 11.5-2.4 15.23-2.85 18.95-3.3 22.2-3.25L22.2-3.25Q24.25-3.25 25.33-2.27 26.4-1.3 26.4 0L26.4 0Q26.4 0.15 26.38 0.35 26.35 0.55 26.3 0.8L26.3 0.8Q26.25 1.6 25.93 2.23 25.6 2.85 25.2 2.85L25.2 2.85Q24.65 2.85 24.5 1.35L24.5 1.35Q24.15 0.05 23.55-0.6 22.95-1.25 21.25-1.25L21.25-1.25Q9.35-1.15 1.2 3.25L1.2 3.25Q0.8 4.05 0.4 4.65 0 5.25-0.35 5.65L-0.35 5.65Q-1.3 6.75-2.3 6.75ZM10.95-8.7L10.95-8.7Q14.75-8.7 19.25-11.4L19.25-11.4Q22.25-13.2 24.98-15.58 27.7-17.95 29.88-20.5 32.05-23.05 33.3-25.25L33.3-25.25Q34.1-26.65 34.1-27.5L34.1-27.5Q34.1-28.6 32.65-28.6L32.65-28.6Q32.15-28.6 31.45-28.45L31.45-28.45Q28.25-27.8 23.85-24.3L23.85-24.3Q20.95-22 18.18-19.33 15.4-16.65 12.98-13.98 10.55-11.3 8.7-9L8.7-9Q9.85-8.7 10.95-8.7ZM56.1 6.2L56.1 6.2Q52.15 6.2 49.2 3.85L49.2 3.85Q47.8 2.7 46.15 0.83 44.5-1.05 42.95-3.23 41.4-5.4 40.2-7.3L40.2-7.3Q38.1-6.95 36.3-6.85L36.3-6.85Q35.3-4.95 34.6-3.2 33.9-1.45 33.55 0.15L33.55 0.15Q33.5 0.45 33.47 0.65 33.45 0.85 33.45 0.95L33.45 0.95Q33.45 1.85 33.8 2.53 34.15 3.2 34.6 3.25L34.6 3.25Q35 3.3 35.25 3.45 35.5 3.6 35.6 3.8L35.6 3.8 35.6 3.9Q35.6 4.25 34.75 4.25L34.75 4.25Q31.9 4.25 31.9 1.65L31.9 1.65Q31.9 1.45 31.95 1.07 32 0.7 32.1 0.15L32.1 0.15Q32.75-3.05 34.6-6.9L34.6-6.9Q33.75-7.15 32.77-7.65 31.8-8.15 31.15-9.13 30.5-10.1 30.5-11.75L30.5-11.75Q30.5-13.5 31.35-14.68 32.2-15.85 33.65-15.85L33.65-15.85Q34.8-15.85 36.2-15L36.2-15Q36.3-14.95 36.47-14.8 36.65-14.65 37-14.45L37-14.45Q37.55-14.1 38.2-13.3L38.2-13.3Q39.45-15.15 40.77-16.82 42.1-18.5 43.5-20.05L43.5-20.05Q43.7-20.25 43.7-20.6L43.7-20.6 43.7-20.8Q43.7-21.15 43.85-21.3L43.85-21.3Q44.25-21.7 45.5-22.2L45.5-22.2Q45.75-22.35 45.8-22.5L45.8-22.5Q46.05-22.8 46.5-22.8L46.5-22.8Q47.2-22.8 47.8-22.33 48.4-21.85 48-21.45L48-21.45 47.1-20.5Q45.95-19.35 44.45-17.7L44.45-17.7Q43.15-16.3 41.9-14.83 40.65-13.35 39.5-11.75L39.5-11.75Q39.9-11.15 40.4-10.4 40.9-9.65 41.4-8.8L41.4-8.8Q44.45-9.35 47.07-10.23 49.7-11.1 52.3-12.55L52.3-12.55Q55.55-14.35 57.25-16.45 58.95-18.55 58.95-20.5L58.95-20.5Q58.95-22.85 56.52-24.38 54.1-25.9 49.7-25.9L49.7-25.9Q48.3-25.9 46.7-25.7 45.1-25.5 43.25-25.1L43.25-25.1Q39.6-24.3 35.95-22.4 32.3-20.5 29.9-17.6L29.9-17.6Q29.35-16.95 28.95-17.35L28.95-17.35Q28.8-17.55 28.9-18L28.9-18Q28.95-18.35 29.45-19.1L29.45-19.1Q31.1-21.45 34.85-23.3L34.85-23.3Q37.35-24.6 40.1-25.5 42.85-26.4 45.4-26.9 47.95-27.4 49.8-27.4L49.8-27.4Q53.4-27.4 56.2-26.55L56.2-26.55Q61.65-24.8 61.65-20.95L61.65-20.95Q61.65-18.85 59.8-16.63 57.95-14.4 54.3-12.35L54.3-12.35Q52.05-11.1 48.75-9.83 45.45-8.55 42.1-7.7L42.1-7.7Q42.55-6.9 43.45-5.7 44.35-4.5 45.42-3.23 46.5-1.95 47.55-0.83 48.6 0.3 49.35 1L49.35 1Q53.45 4.8 57.75 4.8L57.75 4.8Q61.8 4.8 64.65 1.35L64.65 1.35Q64.75 1.25 64.9 1.25L64.9 1.25Q65.1 1.25 65.22 1.45 65.35 1.65 65.2 1.9L65.2 1.9Q63.4 4.05 61.02 5.13 58.65 6.2 56.1 6.2ZM35.4-8.55L35.4-8.55Q35.65-9.05 36.12-9.88 36.6-10.7 37.25-11.8L37.25-11.8Q36.25-13.1 35.07-13.73 33.9-14.35 32.75-14.35L32.75-14.35Q31.75-14.35 31.75-13.2L31.75-13.2Q31.75-11.4 32.65-10.18 33.55-8.95 35.4-8.55ZM37.25-8.4L37.25-8.4Q37.6-8.4 38.15-8.43 38.7-8.45 39.5-8.5L39.5-8.5 38.4-10.2Q38.05-9.7 37.77-9.25 37.5-8.8 37.25-8.4Z" opacity="1" transform="matrix(1,0,0,1,0,0)" fill="#c53683" class="wordmark-text-0" data-fill-palette-color="primary" id="text-0"></path></svg></g></svg></g></svg></g></svg></g></svg></g></svg></g></svg></g></svg></g><defs></defs></svg><rect width="395.52" height="247.2" fill="none" stroke="none" visibility="hidden"></rect></g></svg></g></svg>